<?xml version="1.0" encoding="utf-8"?>
<svg width="35px" height="35px" viewBox="0 0 35 35" version="1.1" xmlns:xlink="http://www.w3.org/1999/xlink" xmlns="http://www.w3.org/2000/svg">
  <g id="LinkedIN">
    <path d="M0 17.5C0 7.83502 7.83502 0 17.5 0C27.165 0 35 7.83502 35 17.5C35 27.165 27.165 35 17.5 35C7.83502 35 0 27.165 0 17.5Z" id="back" fill="#0077B5" stroke="none" />
    <path d="M4.2005 5.74438L4.2005 17.6602L0.234619 17.6602L0.234619 5.74438L4.2005 5.74438ZM4.4616 2.05822C4.4616 3.20236 3.60037 4.11786 2.21753 4.11786L2.19219 4.11786C0.86075 4.11786 0 3.20236 0 2.05822C0 0.889877 0.886966 0 2.24367 0C3.60037 0 4.43586 0.889877 4.4616 2.05822ZM18.5028 10.8278L18.5026 17.66L14.5369 17.66L14.5369 11.285C14.5369 9.68376 13.963 8.59111 12.5274 8.59111C11.4317 8.59111 10.7791 9.32771 10.4925 10.0392C10.3876 10.2941 10.3619 10.6494 10.3619 11.0055L10.3619 17.6603L6.39551 17.6603C6.39551 17.6603 6.44778 6.8626 6.39551 5.74448L10.3619 5.74448L10.3619 7.43226C10.8882 6.62091 11.831 5.46436 13.9366 5.46436C16.5463 5.46436 18.5028 7.16779 18.5028 10.8278Z" transform="translate(8.166748 8.75)" id="Shape" fill="#FFFFFF" stroke="none" />
  </g>
</svg>